<svg width="31" height="32" viewBox="0 0 31 32" fill="none" xmlns="http://www.w3.org/2000/svg">
<path d="M16.1605 16.112C12.4326 8.896 15.3606 2.544 17.0085 0C8.4327 0.304 1.56885 7.328 1.56885 15.984C1.56885 16.208 1.60085 16.432 1.60085 16.656C2.59283 16.224 3.6648 15.984 4.80078 15.984C7.45672 15.984 9.88867 17.312 11.3606 19.424C14.0326 20.192 16.0005 22.656 16.0005 25.584C16.0005 28.016 14.6086 30.112 12.6086 31.2C14.1766 31.712 15.8565 32 17.5845 32C23.1844 32 28.1123 29.12 30.9762 24.768C27.2003 25.136 19.8085 23.216 16.1605 16.112Z" fill="#323232"/>
<path d="M9.5998 22.3853H9.3118C8.63982 20.5293 6.87985 19.1853 4.7999 19.1853C2.14395 19.1853 0 21.3293 0 23.9853C0 26.6413 2.14395 28.7853 4.7999 28.7853C5.79188 28.7853 8.78381 28.7853 9.5998 28.7853C11.3598 28.7853 12.7997 27.3453 12.7997 25.5853C12.7997 23.8253 11.3598 22.3853 9.5998 22.3853Z" fill="#323232"/>
</svg>
