<svg width="32" height="32" viewBox="0 0 32 32" fill="none" xmlns="http://www.w3.org/2000/svg">
<g clip-path="url(#clip0_1035_259)">
<path fill-rule="evenodd" clip-rule="evenodd" d="M14.8704 0.061569C9.67752 0.572111 5.46916 3.01985 2.71414 7.13212C-4.37426 17.7125 3.25119 31.9948 15.992 32.0013C28.5738 32.0078 36.2056 18.1852 29.5276 7.48591C26.4823 2.60659 20.3871 -0.480791 14.8704 0.061569ZM15.8776 8.59837C19.9331 8.85098 23.8095 9.88251 26.6099 11.4543C27.2023 11.7867 27.3533 11.9206 27.5265 12.2673C28.015 13.2449 27.3176 14.3781 26.2238 14.384C25.8203 14.3862 25.9118 14.4213 24.8276 13.8475C21.0485 11.847 14.9822 10.9938 9.78876 11.7323C8.81451 11.8708 8.03597 12.0278 7.27084 12.2398C5.40621 12.7566 4.13686 11.0274 5.50001 9.82753C6.47784 8.96681 11.756 8.34163 15.8776 8.59837ZM16.09 14.1743C19.3572 14.5745 22.2686 15.501 24.5848 16.8779C25.3492 17.3323 25.6229 17.9177 25.362 18.5405C25.0177 19.3625 24.2577 19.5226 23.3104 18.9727C19.2026 16.5884 13.215 15.8259 8.39246 17.073C7.20877 17.3792 7.01063 17.3844 6.63134 17.1198C5.72704 16.489 5.95713 15.215 7.03361 14.8922C8.24844 14.5278 9.93879 14.2198 11.4369 14.0898C12.2889 14.0158 15.2323 14.0693 16.09 14.1743ZM14.6157 19.2633C18.7206 19.4786 23.4492 21.2414 23.4527 22.5578C23.4552 23.4454 22.6231 23.7896 21.7389 23.2668C18.2688 21.2152 13.7994 20.6747 8.73582 21.6942C7.66501 21.9098 7.43748 21.9116 7.14687 21.7069C6.61193 21.3301 6.60671 20.4925 7.13703 20.1195C7.81966 19.6395 12.2083 19.1371 14.6157 19.2633Z" fill="black"/>
</g>
<defs>
<clipPath id="clip0_1035_259">
<rect width="32" height="32" fill="white"/>
</clipPath>
</defs>
</svg>
